<?xml version="1.0" standalone="no"?>
<!DOCTYPE svg PUBLIC "-//W3C//DTD SVG 20010904//EN"
 "http://www.w3.org/TR/2001/REC-SVG-20010904/DTD/svg10.dtd">
<svg version="1.0" xmlns="http://www.w3.org/2000/svg"
 width="256.000000pt" height="256.000000pt" viewBox="0 0 256.000000 256.000000"
 preserveAspectRatio="xMidYMid meet">

<g transform="translate(0.000000,256.000000) scale(0.100000,-0.100000)"
fill="#000000" stroke="none">
<path d="M572 2540 c-6 -11 -12 -28 -12 -38 0 -13 -13 -21 -45 -30 -54 -14
-127 -78 -157 -135 -15 -30 -18 -50 -14 -81 6 -39 3 -45 -38 -94 -93 -109
-176 -268 -212 -406 -29 -111 -44 -269 -44 -469 l0 -198 -26 -26 c-34 -34 -24
-39 23 -12 38 22 73 21 73 -1 0 -6 -10 -8 -25 -4 -18 4 -27 1 -31 -10 -4 -10
-13 -14 -23 -12 -9 3 -23 1 -31 -4 -13 -8 -12 -11 3 -23 17 -12 18 -15 2 -53
-11 -29 -15 -64 -13 -120 l3 -79 72 1 72 0 7 -53 c12 -95 -27 -234 -78 -280
-47 -43 13 -57 120 -29 48 13 52 13 52 -3 0 -10 -16 -39 -36 -65 -21 -25 -34
-50 -30 -54 15 -15 109 -2 163 23 30 14 57 25 59 25 10 0 2 -25 -12 -41 -9
-10 -13 -23 -9 -28 14 -23 72 -11 138 29 74 45 77 46 77 25 0 -9 9 -15 21 -15
19 0 21 -4 14 -32 -4 -18 -8 -40 -8 -48 -3 -26 41 -22 105 9 34 17 63 31 65
31 1 0 3 -16 3 -35 0 -25 5 -38 18 -43 10 -4 17 -18 18 -34 0 -16 1 -50 2 -78
l2 -50 70 0 c60 0 70 3 70 18 0 9 7 25 15 36 9 12 12 30 8 50 -8 41 -10 42
-32 22 -10 -10 -21 -14 -24 -9 -8 13 -11 123 -4 123 4 0 13 0 20 0 7 0 32 -16
54 -35 23 -19 48 -35 56 -35 16 0 22 -19 32 -112 l6 -58 114 0 c63 0 126 5
141 10 15 6 30 7 33 2 3 -4 25 -9 48 -11 35 -1 42 1 37 14 -5 13 -2 15 22 9
16 -4 39 -11 52 -15 38 -15 75 -11 69 6 -4 8 -2 17 3 20 6 4 10 -3 10 -14 0
-18 6 -21 50 -21 30 0 50 4 50 11 0 6 -12 33 -27 60 -21 39 -24 52 -14 62 9 9
13 7 18 -12 5 -21 8 -18 21 20 18 56 29 69 57 69 25 0 35 -30 35 -101 0 -21 4
-40 10 -44 6 -4 6 -15 0 -31 -6 -14 -10 -27 -10 -30 0 -2 23 -4 50 -4 28 0 50
2 50 5 0 3 -18 30 -41 60 -51 68 -51 100 1 100 27 0 35 4 34 17 -2 15 7 18 52
18 30 0 54 2 54 5 0 4 -7 20 -16 37 -9 17 -12 34 -7 38 11 11 44 15 63 7 8 -3
35 -8 60 -11 25 -3 56 -9 69 -12 20 -6 22 -4 17 13 -5 15 4 27 39 52 40 28 75
35 60 11 -13 -21 14 -17 28 4 13 19 27 24 71 28 31 3 59 7 62 11 3 3 -6 23
-20 44 -31 45 -32 72 -6 147 26 77 47 191 55 301 4 50 13 108 22 129 33 88 7
465 -46 654 -11 41 -34 102 -51 136 -16 35 -30 67 -30 73 0 5 14 35 31 67 29
53 31 63 24 115 -4 31 -9 83 -10 116 -2 58 -38 153 -65 170 -16 10 -12 -8 20
-78 36 -79 38 -101 11 -92 -14 4 -21 0 -26 -16 -6 -18 -10 -13 -26 32 -25 70
-71 144 -89 144 -8 0 -27 20 -42 45 -14 25 -43 64 -63 88 -43 50 -49 48 -93
-32 -49 -86 -55 -87 -92 -9 -38 82 -68 117 -86 102 -7 -5 -18 -32 -24 -59 -7
-28 -13 -50 -13 -50 -1 0 -35 11 -75 25 -164 56 -435 77 -576 45 -27 -6 -55
-9 -63 -6 -7 3 -13 1 -13 -4 0 -6 -8 -10 -18 -10 -13 0 -22 12 -31 40 -7 23
-18 40 -26 40 -15 0 -45 -49 -45 -73 0 -19 -30 -44 -62 -52 -26 -7 -29 -3 -47
38 -11 25 -25 48 -32 53 -14 8 -59 -38 -59 -62 0 -29 -30 -73 -61 -88 -18 -9
-35 -16 -39 -16 -3 0 -17 30 -30 68 -27 79 -28 81 -40 62 -7 -11 -11 -11 -24
-1 -25 21 -29 51 -10 72 16 18 16 19 -2 19 -11 0 -25 -9 -32 -20z m513 -142
c12 -65 22 -95 30 -92 6 3 17 -2 24 -10 15 -18 5 -57 -13 -50 -16 6 -40 -158
-31 -203 14 -62 -26 12 -56 107 -28 85 -31 104 -26 185 4 88 32 185 47 168 4
-4 15 -51 25 -105z m866 30 c10 -20 29 -63 40 -94 20 -52 20 -63 10 -128 -16
-93 -38 -168 -57 -192 -17 -21 -17 -24 1 65 6 27 4 33 -7 28 -11 -4 -19 13
-33 69 -10 41 -22 74 -26 74 -15 0 -19 -19 -9 -44 15 -39 3 -31 -20 13 -25 49
-46 65 -36 28 9 -38 -9 -42 -49 -11 -42 32 -44 41 -7 41 46 0 106 29 113 54 4
13 13 57 20 98 13 83 16 82 60 -1z m-401 38 c53 -8 141 -30 195 -48 82 -27
100 -37 100 -53 0 -24 -9 -24 -120 1 -93 20 -413 22 -528 3 -38 -6 -71 -9 -74
-6 -3 3 -6 20 -6 38 -2 31 0 33 48 46 124 33 250 39 385 19z m-957 -10 c6 -16
-2 -28 -14 -20 -12 7 -11 34 0 34 5 0 11 -6 14 -14z m298 -38 c12 -29 23 -74
23 -100 1 -57 8 -65 38 -44 33 24 38 20 38 -26 0 -38 -1 -40 -17 -26 -35 29
-38 27 -40 -30 -1 -32 -3 -86 -4 -122 l-2 -65 -39 85 c-22 46 -42 87 -46 90
-18 13 -32 66 -32 121 0 71 26 169 44 169 8 0 24 -24 37 -52z m-350 21 c28
-20 29 -22 12 -35 -16 -13 -15 -13 11 -4 16 6 41 19 57 30 32 23 31 24 54 -55
l17 -59 -29 -24 c-15 -13 -41 -30 -58 -37 -16 -8 -26 -14 -22 -15 8 0 -61 -70
-69 -70 -2 0 -11 27 -20 60 -9 33 -21 63 -27 67 -18 11 -87 13 -87 3 0 -6 11
-10 24 -10 33 0 39 -12 19 -39 l-15 -23 -29 28 -28 27 22 40 c18 33 121 137
135 137 2 0 17 -9 33 -21z m1644 -60 c40 -67 48 -88 46 -122 -3 -62 -17 -112
-58 -206 -39 -88 -51 -90 -52 -9 -1 41 -9 68 -21 68 -5 0 -10 -7 -12 -16 -2
-11 -13 -1 -35 30 -26 36 -31 52 -26 79 4 30 8 33 34 29 26 -4 29 -1 29 24 l0
27 25 -23 c18 -17 25 -19 25 -9 0 19 -54 72 -63 62 -4 -3 -7 -18 -7 -31 0 -24
-1 -25 -20 -7 -26 24 -25 38 4 69 13 14 34 46 47 71 13 25 26 45 29 45 4 0 28
-36 55 -81z m-1193 -9 c-7 -48 -61 -51 -62 -3 0 9 37 29 61 32 3 1 4 -12 1
-29z m637 -62 c24 -17 17 -30 -26 -52 -18 -9 -33 -19 -33 -22 0 -3 5 -2 10 1
6 3 10 4 10 1 0 -3 -9 -10 -19 -16 -15 -7 -32 -5 -67 9 -32 12 -43 20 -33 25
8 3 4 4 -8 2 -13 -2 -23 -1 -23 4 0 4 -20 13 -45 19 -25 6 -45 14 -45 17 0 3
7 3 16 0 9 -4 24 0 33 7 9 8 36 26 60 40 l44 25 54 -23 c29 -13 62 -30 72 -37z
m-239 42 c-7 -4 -30 -5 -51 -3 -23 4 -45 1 -53 -7 -10 -8 -26 -9 -48 -4 l-33
8 35 7 c48 9 165 8 150 -1z m271 0 c9 0 19 -10 22 -21 4 -16 10 -20 24 -14 40
16 57 16 29 -1 -25 -14 -33 -15 -50 -3 -12 7 -37 21 -56 31 -27 15 -29 18 -10
14 14 -3 32 -6 41 -6z m54 -20 c-3 -5 -10 -10 -16 -10 -5 0 -9 5 -9 10 0 6 7
10 16 10 8 0 12 -4 9 -10z m-933 -41 c-4 -34 -10 -44 -34 -58 -41 -22 -167
-118 -198 -150 -135 -141 -234 -343 -265 -541 l-13 -85 -1 60 c-2 130 93 384
198 530 20 27 30 46 23 41 -6 -4 -12 -3 -12 2 0 29 260 242 295 242 6 0 9 -17
7 -41z m533 31 c3 -5 -1 -10 -9 -10 -9 0 -16 5 -16 10 0 6 4 10 9 10 6 0 13
-4 16 -10z m994 -95 c27 -51 30 -67 25 -105 -9 -65 -33 -149 -57 -195 l-21
-40 -9 60 c-5 33 -17 71 -27 84 -17 24 -17 26 1 69 11 24 19 52 19 62 0 14 5
17 23 12 21 -5 21 -4 6 14 -14 16 -17 52 -10 114 2 10 22 -19 50 -75z m-1079
60 c0 0 -17 -18 -38 -38 l-37 -37 3 39 c4 37 6 39 38 38 19 -1 34 -1 34 -2z
m85 -8 c14 -11 15 -16 5 -22 -7 -4 -16 -2 -20 5 -4 7 -15 10 -24 7 -10 -4 -16
-1 -16 8 0 19 30 19 55 2z m-80 -33 c-11 -9 -19 -24 -18 -37 3 -21 2 -21 -6
-2 -6 15 -3 26 12 42 11 13 23 20 26 17 3 -3 -3 -12 -14 -20z m-757 -23 c19
-63 15 -80 -50 -175 -77 -115 -70 -108 -102 -100 -29 7 -35 34 -11 54 20 16
19 30 -1 30 -14 0 -15 7 -10 39 11 69 24 93 46 86 15 -5 29 6 62 49 24 31 46
56 49 56 3 0 11 -17 17 -39z m312 -21 c0 -5 -10 -10 -22 -9 -22 0 -22 1 -3 9
11 5 21 9 23 9 1 1 2 -3 2 -9z m400 6 c0 -2 -8 -10 -17 -17 -16 -13 -17 -12
-4 4 13 16 21 21 21 13z m-820 -21 c-7 -9 -15 -13 -17 -11 -7 7 7 26 19 26 6
0 6 -6 -2 -15z m822 -17 c-7 -7 -12 -8 -12 -2 0 14 12 26 19 19 2 -3 -1 -11
-7 -17z m-412 -3 c0 -3 -7 -17 -16 -31 -24 -36 -10 -41 17 -5 23 31 39 40 39
22 0 -6 -12 -23 -27 -38 -25 -26 -36 -30 -96 -32 l-68 -2 17 25 c13 21 19 24
30 15 14 -12 18 -7 15 23 -1 11 7 18 26 21 46 7 63 7 63 2z m456 -37 c-8 -18
-24 -58 -37 -88 -12 -30 -29 -70 -38 -88 -24 -51 -131 -146 -131 -117 0 3 11
28 25 57 30 62 31 72 5 38 l-19 -25 -22 21 c-17 18 -19 25 -10 43 6 11 20 25
30 30 15 8 22 3 40 -29 30 -53 51 -53 51 0 0 23 9 60 21 83 21 43 76 107 91
107 5 0 2 -15 -6 -32z m1187 -142 c-30 -73 -32 -76 -44 -53 -6 9 -16 17 -24
17 -8 0 -17 5 -20 10 -9 14 17 83 37 98 9 6 20 26 23 44 l7 32 23 -44 22 -43
-24 -61z m-1950 79 c-3 -9 -8 -14 -10 -11 -3 3 -2 9 2 15 9 16 15 13 8 -4z
m192 -32 c-3 -15 -13 -42 -20 -60 -13 -31 -17 -33 -57 -31 -37 1 -38 2 -10 5
17 2 32 8 32 13 0 4 -18 6 -40 3 -45 -6 -47 -3 -23 38 18 31 57 50 117 58 4 0
5 -11 1 -26z m615 24 c0 -1 -9 -20 -20 -42 -22 -43 -26 -36 -9 14 6 17 15 31
20 31 5 0 9 -1 9 -3z m52 -24 c34 -39 50 -86 45 -127 -7 -50 -31 -69 -75 -61
-20 4 -39 1 -48 -6 -11 -9 -14 -7 -14 12 0 27 34 172 45 188 9 16 30 13 47 -6z
m-582 -1 c0 -4 -9 -13 -21 -20 -19 -12 -19 -11 -9 8 10 19 30 28 30 12z m759
-29 c23 -69 51 -186 46 -191 -11 -12 -57 33 -80 77 -26 52 -47 129 -39 143 3
4 18 8 33 8 23 0 30 -6 40 -37z m-97 -33 c-4 -41 -22 -67 -22 -31 0 19 16 71
23 71 1 0 1 -18 -1 -40z m388 11 c0 -11 4 -22 8 -25 8 -5 13 -40 16 -121 1
-28 -3 -40 -14 -43 -12 -2 -22 21 -43 95 -15 54 -27 101 -27 106 0 4 14 7 30
7 23 0 30 -5 30 -19z m-1300 -72 c-18 -86 -28 -99 -73 -99 l-29 0 22 38 c60
102 86 141 91 142 4 0 -1 -36 -11 -81z m1242 4 c13 -73 13 -78 -4 -81 -10 -2
-32 6 -48 18 -17 12 -46 26 -64 31 -34 9 -46 29 -46 76 0 20 3 21 28 12 21 -7
37 -6 63 5 19 9 39 15 46 16 6 0 17 -33 25 -77z m287 53 c7 -6 24 -28 37 -48
14 -21 31 -38 39 -38 13 0 14 -4 5 -20 -12 -23 -3 -27 14 -5 9 11 15 5 33 -35
12 -28 18 -50 12 -50 -5 0 -9 6 -9 14 0 7 -7 19 -15 26 -18 15 -21 -1 -4 -32
6 -11 9 -22 6 -24 -10 -11 -119 53 -139 81 -4 5 -10 27 -14 48 -3 21 -12 50
-20 65 -7 14 -11 29 -8 33 5 9 44 0 63 -15z m-1233 -35 c-9 -16 -16 -37 -16
-46 0 -8 -4 -15 -10 -15 -5 0 -3 19 6 43 24 69 26 73 31 60 2 -6 -3 -25 -11
-42z m441 17 c-3 -8 -6 -5 -6 6 -1 11 2 17 5 13 3 -3 4 -12 1 -19z m670 -63
c15 -72 15 -85 5 -85 -4 0 -15 26 -23 58 -9 31 -20 65 -24 76 -6 14 -4 17 11
14 13 -2 21 -19 31 -63z m-1554 3 c-9 -18 -31 -76 -49 -128 -39 -114 -44 -92
-9 40 33 124 31 120 55 120 20 0 20 -1 3 -32z m1948 -5 c-12 -20 -14 -14 -5
12 4 9 9 14 11 11 3 -2 0 -13 -6 -23z m-323 -36 c5 -37 -15 -34 -20 3 -3 19
-1 29 6 27 6 -2 12 -16 14 -30z m432 -92 c0 -11 -7 -14 -24 -9 -16 4 -25 1
-29 -10 -6 -14 -10 -14 -27 -4 -16 11 -22 10 -34 -7 -17 -22 -21 -45 -7 -45 5
0 12 8 15 17 5 12 9 14 18 5 18 -18 38 -14 47 10 l8 21 21 -21 c13 -13 24 -17
28 -11 8 13 33 -20 34 -43 0 -12 -8 -18 -20 -18 -11 0 -23 -7 -26 -15 -5 -13
-9 -13 -21 -3 -12 10 -17 9 -25 -6 -9 -17 -11 -16 -33 4 -22 21 -24 21 -33 3
-11 -20 -9 -25 -31 72 -5 22 -12 48 -16 58 -6 15 1 17 74 17 66 0 81 -3 81
-15z m-1216 -292 c4 -18 6 -33 3 -33 -2 0 -34 14 -70 30 -37 17 -72 30 -79 30
-20 0 53 -68 119 -112 43 -27 65 -49 70 -67 8 -35 50 -118 63 -126 7 -4 9 2 5
19 -3 14 -7 37 -10 51 -8 37 0 31 30 -22 21 -38 24 -52 16 -70 -12 -27 -6 -28
53 -12 31 8 41 8 47 -3 6 -9 9 -9 9 -1 0 7 21 14 48 18 26 3 62 8 81 11 27 4
33 3 28 -10 -5 -12 1 -15 23 -13 17 1 30 6 30 11 0 5 3 6 7 3 10 -10 34 29 28
46 -3 7 3 25 15 38 l21 24 -3 -35 c-3 -30 0 -35 20 -38 31 -5 92 25 92 44 0 8
12 20 28 26 22 9 24 12 9 15 -14 4 -16 11 -11 41 4 20 11 42 16 49 5 7 7 17 4
22 -4 5 -1 13 5 17 8 5 10 -16 8 -75 l-4 -83 25 6 c14 2 33 8 44 12 13 5 17 3
14 -6 -2 -8 -26 -19 -54 -25 -27 -6 -60 -17 -74 -24 -34 -18 -80 -62 -74 -72
2 -4 0 -10 -6 -14 -5 -3 -10 -11 -10 -17 0 -6 12 -2 27 7 l26 18 -20 -34 c-44
-72 -35 -148 21 -184 32 -21 196 -35 196 -16 0 7 -23 11 -66 11 -76 0 -126 19
-142 55 -9 20 -9 23 3 18 8 -3 15 -12 15 -20 0 -8 5 -11 11 -8 7 5 4 14 -7 26
-16 17 -16 21 -1 37 11 12 13 22 6 34 -7 13 -5 15 11 11 11 -3 20 -13 20 -22
0 -13 2 -13 9 -2 7 11 11 9 20 -8 15 -26 48 -27 56 -2 4 12 12 18 21 14 7 -3
14 0 14 6 0 6 6 11 13 11 11 0 43 -83 39 -102 -1 -5 8 -6 21 -4 44 7 19 114
-41 179 l-26 27 26 0 c74 0 136 -61 146 -145 4 -44 5 -45 23 -29 11 10 19 22
19 28 1 6 7 25 15 41 14 29 15 27 9 -35 -3 -36 -10 -70 -16 -77 -10 -12 -4
-17 15 -14 12 2 -2 -41 -20 -61 -22 -25 -1 -29 35 -8 l32 20 21 -33 c17 -27
20 -44 16 -107 -5 -99 -34 -158 -116 -241 -75 -74 -194 -141 -329 -183 -101
-32 -113 -32 -131 -4 l-13 21 -30 -31 c-30 -33 -58 -42 -58 -18 0 25 -28 26
-47 1 -17 -23 -26 -25 -144 -31 -88 -5 -128 -3 -133 4 -4 7 -19 9 -36 5 -25
-4 -34 0 -57 26 -25 28 -28 29 -45 14 -16 -14 -24 -13 -101 10 -85 27 -232 91
-241 105 -3 5 21 6 53 4 61 -4 91 11 57 30 -28 16 -85 68 -107 99 l-20 28 66
-6 c36 -3 65 -2 65 2 0 5 -20 28 -45 51 -24 24 -56 66 -70 95 l-27 52 36 -6
c20 -3 36 -2 36 2 0 4 -14 34 -32 66 -60 111 -56 175 15 229 36 28 120 66 145
66 12 0 10 -6 -10 -27 -52 -56 -73 -120 -56 -175 6 -21 17 -38 25 -38 10 0 11
5 3 19 -5 11 -10 26 -9 33 0 7 4 3 10 -10 8 -20 11 -22 23 -10 8 8 12 25 9 39
-4 20 1 28 22 37 35 16 48 15 41 -3 -3 -9 3 -19 15 -26 16 -8 26 -7 46 6 14
10 22 12 19 6 -4 -6 -1 -11 8 -11 8 0 20 9 26 19 16 31 65 14 55 -20 -4 -10
-2 -19 4 -19 5 0 12 10 15 23 3 12 3 0 1 -28 -3 -45 -2 -48 11 -30 20 27 17
84 -5 129 -17 33 -18 37 -3 31 11 -4 9 2 -7 19 -24 25 -17 38 7 14 6 -6 14 -9
17 -7 11 11 -57 77 -97 93 -23 10 -58 24 -75 32 -22 9 -33 10 -33 3 0 -10
-105 -9 -140 1 -11 4 -14 -2 -13 -18 3 -19 -6 -27 -45 -44 -26 -12 -61 -32
-78 -44 -34 -27 -44 -23 -44 16 0 18 16 42 56 80 31 30 97 105 147 165 50 61
121 143 157 184 l65 74 11 -79 c6 -43 14 -94 18 -111z m1296 53 c0 -7 -183
-47 -188 -41 -6 6 9 11 83 29 61 14 105 19 105 12z m-603 -38 c-3 -8 -6 -5 -6
6 -1 11 2 17 5 13 3 -3 4 -12 1 -19z m168 -174 c-3 -24 -11 -44 -16 -44 -10 0
-3 85 9 105 10 17 14 -16 7 -61z m-1779 -80 c-10 -7 -14 -18 -10 -28 6 -15 -5
-21 -29 -17 -5 1 -6 -3 -2 -9 3 -6 11 -8 16 -5 5 4 9 2 9 -3 0 -17 -13 -22
-28 -9 -13 10 -15 9 -8 -8 13 -34 12 -40 -7 -38 -12 0 -16 -4 -13 -13 3 -8 1
-14 -4 -14 -6 0 -10 4 -10 8 0 14 -38 11 -51 -4 -9 -11 -9 -14 1 -14 8 0 11
-2 8 -5 -7 -8 -38 5 -38 16 0 5 6 9 14 9 8 0 24 12 35 26 20 25 22 26 39 10
10 -9 23 -16 28 -16 5 0 0 7 -11 16 -18 14 -19 16 -4 42 9 15 21 26 28 24 7
-1 10 2 6 8 -3 5 4 29 17 51 l23 42 3 -29 c2 -17 -2 -32 -12 -40z m1854 23 c0
-8 14 -12 39 -12 38 0 40 -1 45 -35 3 -19 4 -44 4 -54 -1 -18 -2 -18 -18 1 -9
11 -26 25 -38 32 -12 6 -22 18 -22 26 0 8 -4 15 -9 15 -5 0 -22 5 -38 11 l-28
12 25 7 c37 12 40 11 40 -3z m400 8 c0 -9 -72 -135 -81 -141 -5 -3 2 -20 16
-38 36 -47 31 -68 -6 -27 l-31 33 -58 -63 c-64 -69 -82 -67 -25 3 66 81 66 80
-1 142 -42 39 -56 58 -48 66 7 7 27 -7 69 -51 l58 -61 18 23 c10 13 30 45 46
71 24 41 43 60 43 43z m-650 -90 c0 -8 9 -15 20 -15 24 0 24 -3 5 -40 -18 -34
-31 -37 -64 -14 l-22 16 22 24 c12 13 19 24 15 24 -4 0 -4 5 -1 10 9 15 25 12
25 -5z m-777 -8 c26 -28 35 -53 25 -70 -11 -21 -37 -22 -65 -2 l-22 15 22 35
c25 39 25 39 40 22z m-773 -70 c0 -66 33 -222 66 -316 19 -53 28 -88 20 -78
-7 9 -18 17 -25 17 -6 0 -11 9 -11 20 0 14 -8 22 -28 26 -23 5 -36 20 -66 74
-55 103 -61 206 -15 264 30 38 59 35 59 -7z m2157 1 c-3 -7 -5 -2 -5 12 0 14
2 19 5 13 2 -7 2 -19 0 -25z m-2303 -24 c9 -24 2 -26 -12 -4 -7 11 -8 20 -3
20 5 0 12 -7 15 -16z m826 -10 c0 -8 -7 -14 -15 -14 -15 0 -21 21 -9 33 10 9
24 -2 24 -19z m-845 -14 c-3 -5 -14 -10 -23 -10 -15 0 -15 2 -2 10 20 13 33
13 25 0z m19 -35 c-4 -8 -11 -15 -16 -15 -6 0 -5 6 2 15 7 8 14 15 16 15 2 0
1 -7 -2 -15z m-24 -34 c0 -5 -9 -19 -20 -32 l-20 -24 17 32 c19 34 23 39 23
24z m2330 -40 c0 -5 -33 -16 -72 -26 -108 -24 -109 -24 -105 -12 2 6 37 19 78
28 92 20 99 21 99 10z m-2410 -74 c0 -2 -10 -12 -22 -23 l-23 -19 19 23 c18
21 26 27 26 19z m2345 -427 l16 -30 -30 0 c-28 0 -29 1 -18 30 6 17 13 30 14
30 1 0 9 -13 18 -30z m-1220 -181 c10 -31 13 -54 7 -58 -5 -3 -13 -22 -17 -41
l-8 -35 -13 35 c-7 19 -13 44 -13 55 -1 21 17 95 23 95 2 0 11 -23 21 -51z
m530 21 c8 -35 -3 -110 -15 -110 -5 0 -10 10 -13 23 -3 20 -5 19 -16 -10 -7
-18 -17 -33 -23 -33 -6 0 -7 7 -2 18 4 9 7 29 7 45 0 15 5 27 12 27 14 0 25
22 25 51 0 30 18 22 25 -11z m-111 -53 c6 -39 3 -54 -15 -87 -13 -22 -26 -40
-30 -40 -3 0 -11 19 -17 42 -10 37 -8 48 16 99 29 62 36 60 46 -14z m-474 11
c0 -28 -3 -39 -10 -32 -9 9 -3 74 6 74 2 0 4 -19 4 -42z m164 -28 c6 -35 -16
-131 -26 -114 -15 23 -19 105 -8 140 14 41 23 34 34 -26z m-54 28 c0 -13 -23
-5 -28 10 -2 7 2 10 12 6 9 -3 16 -11 16 -16z m278 -14 c-16 -16 -38 -12 -38
6 0 8 41 19 49 13 3 -2 -2 -11 -11 -19z m-41 -23 c9 -28 8 -43 -4 -71 l-15
-35 -18 39 c-17 37 -17 41 -2 52 9 7 13 16 9 21 -13 12 -39 -29 -34 -54 3 -16
-1 -23 -12 -24 -9 0 -25 -2 -36 -4 -40 -8 -51 2 -47 44 2 21 -1 42 -7 45 -29
18 -5 26 72 24 l83 -2 11 -35z m-570 -36 c-4 -24 -3 -47 2 -49 8 -6 -49 -76
-62 -76 -3 0 -1 14 4 32 7 24 5 36 -7 49 -14 16 -14 20 1 49 12 24 21 30 36
25 11 -4 19 -2 19 4 0 6 3 11 6 11 4 0 4 -20 1 -45z m319 10 c0 -22 -5 -35
-13 -35 -16 0 -17 24 -1 50 7 11 13 20 13 20 1 0 1 -16 1 -35z m-256 -55 c0
-5 -5 -10 -11 -10 -5 0 -7 5 -4 10 3 6 8 10 11 10 2 0 4 -4 4 -10z m654 -36
c5 -12 2 -15 -10 -10 -8 3 -18 6 -20 6 -3 0 -2 5 1 10 9 15 22 12 29 -6z
m-191 -51 c-7 -2 -19 -2 -25 0 -7 3 -2 5 12 5 14 0 19 -2 13 -5z"/>
<path d="M1072 2220 c0 -14 2 -19 5 -12 2 6 2 18 0 25 -3 6 -5 1 -5 -13z"/>
<path d="M1083 2145 c0 -22 2 -30 4 -17 2 12 2 30 0 40 -3 9 -5 -1 -4 -23z"/>
<path d="M1780 2235 c7 -8 17 -15 22 -15 6 0 5 7 -2 15 -7 8 -17 15 -22 15 -6
0 -5 -7 2 -15z"/>
<path d="M881 2250 c0 -8 9 -46 20 -85 13 -46 18 -56 14 -30 -2 22 -5 52 -5
66 0 14 -7 34 -15 45 -11 14 -14 15 -14 4z"/>
<path d="M2260 2120 c0 -24 15 -27 24 -4 9 22 8 24 -9 24 -8 0 -15 -9 -15 -20z"/>
<path d="M455 1850 c-3 -5 -1 -10 4 -10 6 0 11 5 11 10 0 6 -2 10 -4 10 -3 0
-8 -4 -11 -10z"/>
<path d="M1210 1230 c33 -26 52 -25 21 0 -13 11 -28 20 -35 20 -6 0 0 -9 14
-20z"/>
<path d="M1947 1016 c-4 -10 -5 -21 -2 -24 9 -9 17 6 13 25 -3 17 -4 17 -11
-1z"/>
<path d="M2041 946 c-8 -9 -11 -19 -7 -23 9 -9 29 13 24 27 -2 8 -8 7 -17 -4z"/>
<path d="M2075 900 c4 -6 11 -8 16 -5 14 9 11 15 -7 15 -8 0 -12 -5 -9 -10z"/>
<path d="M1169 896 c-6 -6 -79 -15 -121 -16 -21 0 -38 -4 -38 -8 0 -13 138 -3
173 12 25 11 28 15 11 15 -11 1 -23 -1 -25 -3z"/>
<path d="M890 820 c0 -5 7 -10 15 -10 8 0 15 5 15 10 0 6 -7 10 -15 10 -8 0
-15 -4 -15 -10z"/>
<path d="M1817 726 c-9 -7 -15 -20 -12 -28 3 -8 -3 -26 -14 -39 l-19 -24 -18
32 c-17 29 -24 32 -100 44 -71 10 -85 10 -114 -5 -18 -9 -40 -16 -49 -17 -13
0 -13 -2 2 -8 16 -6 16 -9 -7 -30 l-25 -23 -27 19 -28 20 -24 -28 -24 -29 -28
22 c-35 28 -37 38 -7 39 14 0 17 2 7 6 -8 3 -23 12 -33 21 -20 18 -18 20 -40
-43 -35 -102 -18 -176 56 -241 49 -43 103 -65 158 -63 38 1 37 1 -44 24 -72
20 -139 80 -156 140 -26 94 2 134 57 83 l24 -23 24 29 c23 26 27 27 56 15 18
-7 64 -13 102 -14 40 0 82 -6 96 -14 56 -31 150 -94 150 -102 0 -10 -76 -72
-109 -89 -14 -7 -56 -21 -95 -31 l-71 -19 60 5 c130 9 238 88 275 201 17 50
20 74 14 107 -5 23 -8 50 -6 60 2 20 -7 21 -31 3z m-168 -28 c40 -9 48 -14 40
-25 -15 -17 -39 -16 -63 2 -11 8 -31 15 -45 15 -21 0 -23 2 -11 10 19 12 19
12 79 -2z m-102 -14 c-3 -3 -12 -4 -19 -1 -8 3 -5 6 6 6 11 1 17 -2 13 -5z"/>
<path d="M1368 663 c7 -3 16 -2 19 1 4 3 -2 6 -13 5 -11 0 -14 -3 -6 -6z"/>
<path d="M1858 2538 c-8 -13 -23 -39 -32 -58 -15 -31 -15 -33 -1 -15 19 23 58
95 51 95 -2 0 -10 -10 -18 -22z"/>
<path d="M2122 2535 c14 -30 24 -31 40 -5 18 29 29 25 79 -27 84 -89 83 -88
64 -116 -13 -20 -14 -30 -5 -46 12 -24 14 -25 41 -10 16 8 18 13 9 24 -6 8 -9
23 -5 34 7 23 -6 51 -46 100 -43 53 -78 71 -136 71 -52 0 -53 0 -41 -25z"/>
<path d="M910 2507 c0 -2 15 -16 33 -33 l32 -29 -29 33 c-28 30 -36 37 -36 29z"/>
<path d="M1071 104 c0 -11 3 -14 6 -6 3 7 2 16 -1 19 -3 4 -6 -2 -5 -13z"/>
</g>
</svg>
